<?xml version="1.0" encoding="utf-8"?>
<!-- Generator: Adobe Illustrator 23.0.2, SVG Export Plug-In . SVG Version: 6.00 Build 0)  -->
<svg version="1.1" id="レイヤー_1" xmlns="http://www.w3.org/2000/svg" xmlns:xlink="http://www.w3.org/1999/xlink" x="0px"
	 y="0px" viewBox="0 0 175.7480316 99.2126007" style="enable-background:new 0 0 175.7480316 99.2126007;" xml:space="preserve">
<style type="text/css">
	.st0{font-family:'AvenirNext-Medium';}
	.st1{font-size:6.5px;}
	.st2{clip-path:url(#SVGID_2_);}
	.st3{clip-path:url(#SVGID_4_);}
	.st4{fill:#040000;}
	.st5{fill-rule:evenodd;clip-rule:evenodd;fill:#040000;}
	.st6{fill:none;stroke:#000000;stroke-width:0.5;stroke-miterlimit:10;}
	.st7{fill:none;}
</style>
<text transform="matrix(1 0 0 1 9.569109 32.0952263)" class="st0 st1">M/N : </text>
<g id="アートワーク_6_1_">
	<g>
		<defs>
			<rect id="SVGID_1_" x="8.1595345" y="7.6192155" width="43.9351501" height="13.3527641"/>
		</defs>
		<clipPath id="SVGID_2_">
			<use xlink:href="#SVGID_1_"  style="overflow:visible;"/>
		</clipPath>
		<g class="st2">
			<defs>
				<rect id="SVGID_3_" x="8.1595345" y="7.6192155" width="43.9351501" height="13.3527641"/>
			</defs>
			<clipPath id="SVGID_4_">
				<use xlink:href="#SVGID_3_"  style="overflow:visible;"/>
			</clipPath>
			<path class="st3" d="M24.6223373,13.9035606c-0.8167095,0-1.2290268-0.4603119-1.2687454-1.3876295
				c0-0.0487003,0.0155888-0.0805798,0.0634956-0.087184l0.4672699-0.0876245
				c0.056097-0.0077496,0.0876236,0.0233374,0.0876236,0.0720367c0.0319672,0.6655912,0.2457008,0.9027481,0.6585445,0.9027481
				c0.4117012,0,0.6024494-0.1986732,0.6024494-0.9272299c0-0.6188288-0.1190643-0.8482361-0.5474968-1.0145025
				l-0.3248692-0.1273403c-0.7371864-0.2862091-0.9435215-0.6500034-0.9435215-1.4837971
				c0-0.9190397,0.3962898-1.3949394,1.2052498-1.3949394c0.8085194,0,1.1812077,0.4447241,1.2213631,1.2851229
				c0,0.0467625-0.0237751,0.0787296-0.071331,0.0869198l-0.4443741,0.0715961
				c-0.047554,0.0155878-0.0869198-0.0155869-0.0869198-0.0641994c-0.0163784-0.5300589-0.1903057-0.7929316-0.6027985-0.7929316
				c-0.3968201,0-0.5867748,0.2383032-0.5867748,0.7855349c0,0.5548935,0.126461,0.744936,0.562645,0.9119949l0.3251343,0.1277809
				c0.6900711,0.2768745,0.93577,0.633976,0.93577,1.5300312C25.8750515,13.3956938,25.5342445,13.9035606,24.6223373,13.9035606"/>
			<path class="st3" d="M26.6527672,8.518775c0-0.0474653,0.0315266-0.07864,0.0794334-0.07864h0.4913998
				c0.0639343,0,0.0954609,0.0229845,0.1110497,0.07864l0.982975,3.3000374h0.0318794l0.959549-3.3000374
				c0.0155869-0.0556555,0.056097-0.07864,0.1195908-0.07864h0.4833851c0.047554,0,0.078907,0.0311747,0.078907,0.07864v5.2336674
				c0,0.0482597-0.031353,0.0801392-0.078907,0.0801392h-0.4284325c-0.047554,0-0.0790825-0.0318794-0.0790825-0.0801392v-3.7343702
				h-0.0393639l-0.8169727,2.7755251c-0.0159397,0.0467625-0.0479088,0.0787296-0.0954628,0.0787296h-0.2616405
				c-0.0549507,0-0.0790806-0.0319672-0.0950203-0.0787296l-0.8167095-2.7755251h-0.0393639v3.7343702
				c0,0.0482597-0.0319672,0.0801392-0.0798759,0.0801392h-0.4279041c-0.0479069,0-0.0794334-0.0318794-0.0794334-0.0801392
				V8.518775z"/>
			<path class="st3" d="M31.7600422,8.5190306c0.0160294-0.0479059,0.0398045-0.0790815,0.0873604-0.0790815h0.4763393
				c0.0475578,0,0.078907,0.0311756,0.0866585,0.0790815l1.1336517,5.2335787
				c0.0086327,0.0478191-0.0232468,0.0797863-0.0708923,0.0797863h-0.4757233c-0.0557442,0-0.0787277-0.0319672-0.0872726-0.0797863
				l-0.2378616-1.1807671h-1.1972351l-0.2378616,1.1807671c-0.0078392,0.0478191-0.0316162,0.0797863-0.0795231,0.0797863
				h-0.4758987c-0.047554,0-0.0795231-0.0319672-0.0715084-0.0797863L31.7600422,8.5190306z M32.5612526,12.0160675
				l-0.4600487-2.3470926h-0.023777l-0.4920158,2.3470926H32.5612526z"/>
			<path class="st3" d="M36.1620216,13.8322821c-0.0475578,0-0.0714226-0.0163803-0.0870094-0.056097l-0.6748352-2.2521582
				c-0.0704536,0.0086298-0.1507683,0.0086298-0.2213058,0.0086298h-0.3255768l-0.047554,0.0466738v2.1731653
				c0,0.0479069-0.031353,0.0797863-0.0788193,0.0797863h-0.4841766c-0.0479088,0-0.079525-0.0318794-0.079525-0.0797863V8.5188293
				c0-0.0474672,0.0316162-0.0786419,0.079525-0.0786419h0.9435196c0.9518929,0,1.4592285,0.4112616,1.4592285,1.5534554
				c0,0.7220402-0.2378616,1.1576948-0.6585426,1.371603l0.7540054,2.3872499c0.0156746,0.0400686,0,0.0797863-0.0400696,0.0797863
				H36.1620216z M36.003418,9.9936428c0-0.7294359-0.2375107-0.959197-0.8090477-0.959197h-0.3410759l-0.047554,0.0474663v1.8233738
				l0.047554,0.0486994h0.3410759C35.749527,10.9539852,36.003418,10.7311821,36.003418,9.9936428"/>
			<path class="st3" d="M38.200386,13.8323956c-0.047554,0-0.0789948-0.0319672-0.0789948-0.0797863v-4.670495l-0.0479965-0.0474653
				h-0.8877754c-0.0479088,0-0.0803185-0.0311756-0.0803185-0.0798759v-0.436182
				c0-0.0474663,0.0324097-0.0786419,0.0803185-0.0786419h2.51371c0.0476418,0,0.0789948,0.0311756,0.0789948,0.0786419v0.436182
				c0,0.0487003-0.031353,0.0798759-0.0789948,0.0798759h-0.8886566l-0.0475578,0.0474653v4.670495
				c0,0.0478191-0.0314369,0.0797863-0.0789948,0.0797863H38.200386z"/>
			<path class="st3" d="M41.8093071,8.518856c0-0.0474672,0.0319672-0.0786419,0.0790825-0.0786419h1.1185913
				c0.6818848,0,1.0705109,0.2850637,1.2448807,0.8403978c0.0946693,0.2929029,0.1269875,0.6500034,0.1269875,1.8552532
				c0,1.2053366-0.0323181,1.5619984-0.1269875,1.8560448c-0.1743698,0.5545416-0.5629959,0.8403988-1.2448807,0.8403988h-1.1185913
				c-0.0471153,0-0.0790825-0.0318794-0.0790825-0.0797863V8.518856z M42.4990273,13.2380495h0.4440231
				c0.3649368,0,0.5707436-0.1437206,0.681881-0.4611053c0.071331-0.2207766,0.1036491-0.5156164,0.1036491-1.6410789
				c0-1.1266088-0.0323181-1.4195108-0.1036491-1.6410799c-0.1111374-0.3173838-0.3169441-0.4603128-0.681881-0.4603128h-0.4440231
				l-0.047554,0.0474672v4.1074114L42.4990273,13.2380495"/>
			<path class="st3" d="M45.2433014,8.518775c0-0.0474653,0.0323181-0.07864,0.0795212-0.07864h0.4832077
				c0.048172,0,0.0794373,0.0311747,0.0794373,0.07864v5.2336674c0,0.0482597-0.0312653,0.0801392-0.0794373,0.0801392h-0.4832077
				c-0.0472031,0-0.0795212-0.0318794-0.0795212-0.0801392V8.518775z"/>
			<path class="st3" d="M47.6069336,13.8323956c-0.0475578,0-0.0790825-0.0319672-0.0790825-0.0797863v-2.1489468
				l-1.0389862-3.0850716c-0.0160255-0.0474663,0-0.0786419,0.0553055-0.0786419h0.5000305
				c0.0553932,0,0.0789948,0.0233374,0.0949326,0.0786419l0.705307,2.2610521h0.0241318l0.705658-2.2610521
				c0.0159416-0.0553045,0.0400696-0.0786419,0.0872726-0.0786419h0.4915733c0.055481,0,0.0710716,0.0311756,0.055481,0.0786419
				l-1.0389824,3.0850716v2.1489468c0,0.0478191-0.0314369,0.0797863-0.0793457,0.0797863H47.6069336z"/>
			<path class="st3" d="M49.2213287,13.1596985c-0.0062523-0.0358419,0.0111847-0.0654316,0.047554-0.0720358l0.3028526-0.0591793
				c0.0360184-0.0054598,0.0655212,0.0116243,0.0717735,0.0486994c0.0353127,0.2912292,0.1958542,0.4100275,0.4045677,0.4100275
				c0.2316971,0,0.3747139-0.1366758,0.3747139-0.4100275c0-0.2266779-0.0774994-0.3517294-0.3271599-0.4533558l-0.2380371-0.088769
				c-0.3687248-0.1433687-0.5887108-0.3922386-0.5887108-0.8022661c0-0.4649801,0.2975693-0.8034115,0.7791939-0.8034115
				c0.4697342,0,0.7201004,0.2979212,0.7614059,0.6359129c0.0057259,0.0424471-0.0118904,0.0721245-0.0413055,0.0771446
				l-0.2863846,0.0606756c-0.0353127,0.0051966-0.0590019-0.0119762-0.0710678-0.0486107
				c-0.0534554-0.2075682-0.1425743-0.3329716-0.362648-0.3329716c-0.226326,0-0.3395767,0.1483879-0.3395767,0.3815823
				c0,0.1714621,0.0716858,0.3084898,0.3278618,0.4097643l0.2375984,0.0892096
				c0.4400597,0.1674099,0.5830765,0.4291372,0.5830765,0.845418c0,0.4934244-0.291317,0.8381081-0.8155632,0.8381081
				C49.566452,13.8856134,49.2688828,13.6234465,49.2213287,13.1596985"/>
			<polygon class="st3" points="8.9084339,13.9035606 12.1044674,8.3680983 15.3005877,13.9035606 			"/>
			<polygon class="st3" points="19.0504589,13.9035606 22.2464905,8.3680983 19.0504589,8.3680983 15.8543377,13.9035606 			"/>
			<polygon class="st3" points="18.7184105,8.368186 15.5219374,13.9035616 12.3266096,8.368186 			"/>
			<path class="st3" d="M9.8697891,17.7461452c0.0987206-0.0605888,0.2089767-0.0907936,0.3302412-0.0907936
				c0.0447369,0,0.0917635,0.0045776,0.1404629,0.0142651c0.0487881,0.0091591,0.0964308,0.0277405,0.1428404,0.0551281
				c0.0464983,0.0272121,0.089386,0.0635834,0.1283102,0.1087608c0.0394526,0.0453529,0.0730934,0.1033859,0.1015377,0.1748066
				c0.0575066-0.11413,0.1352673-0.2014904,0.2339878-0.262167c0.0986319-0.0605888,0.2153168-0.0907936,0.3512001-0.0907936
				c0.2112665,0,0.3703117,0.0630531,0.4759884,0.1888981c0.1056776,0.1260185,0.1590443,0.2923737,0.1590443,0.4992352v1.0236607
				h-0.2427053v-0.9237957c0-0.1758633-0.0330238-0.3172951-0.0981035-0.4242935
				c-0.0655203-0.1071739-0.1763935-0.1605415-0.3337641-0.1605415c-0.0876245,0-0.1618624,0.0177021-0.2228031,0.0533676
				c-0.0604124,0.0357533-0.1091995,0.0826931-0.1463633,0.1410789c-0.0365467,0.0581226-0.0632296,0.124258-0.0801382,0.1978798
				c-0.0168209,0.0737991-0.0249224,0.1498871-0.0249224,0.2281761v0.8881283h-0.2426176v-0.9737282
				c0-0.0806656-0.0058117-0.1543751-0.017437-0.2211285c-0.0121527-0.0664883-0.0330238-0.1231136-0.0627012-0.16926
				c-0.0295897-0.0464096-0.0708036-0.0821648-0.1230259-0.1070862c-0.0523109-0.0249214-0.1189756-0.0374279-0.1997299-0.0374279
				c-0.0568905,0-0.1149244,0.0130348-0.1729584,0.0391884c-0.0580349,0.0261555-0.1102571,0.0658722-0.1567554,0.1195049
				c-0.0464096,0.0535431-0.0841894,0.1213512-0.112546,0.2032509c-0.0284452,0.082077-0.0423594,0.1790352-0.0423594,0.2907887
				v0.8558979H9.4117661v-1.3016796c0-0.0453529-0.0011444-0.103651-0.0034342-0.1747189
				c-0.0029058-0.0714207-0.0064287-0.1355324-0.011096-0.1927738h0.2316093
				c0.0052834,0.0453529,0.0087185,0.0951977,0.011096,0.1497974c0.0022898,0.0548649,0.0034342,0.099865,0.0034342,0.1355324
				h0.0069571C9.6979752,17.8858147,9.7710695,17.8068218,9.8697891,17.7461452"/>
			<path class="st3" d="M13.6130009,18.2869225c0-0.1439857-0.038043-0.2514248-0.1140432-0.3221397
				c-0.0763512-0.0708923-0.1868725-0.106205-0.3317385-0.106205c-0.099865,0-0.1927729,0.0176125-0.2783718,0.053278
				c-0.0852461,0.0357552-0.1578989,0.0833092-0.2173424,0.1428413l-0.1355314-0.1605415
				c0.0686903-0.0689545,0.1599255-0.1259327,0.2728233-0.1711979c0.1128111-0.0452652,0.240592-0.0676327,0.3833447-0.0676327
				c0.0902662,0,0.1748075,0.0125046,0.2530975,0.037426c0.0786409,0.0250111,0.1475077,0.062439,0.2069511,0.1122837
				c0.0595312,0.0500202,0.1056767,0.1129856,0.1390533,0.1890736c0.0333767,0.0760002,0.0499325,0.1651211,0.0499325,0.2672749
				v0.7314625c0,0.0641117,0.0022898,0.1305122,0.0072212,0.1995544c0.0046673,0.0688667,0.0118885,0.1271648,0.0214882,0.1748085
				h-0.2176952c-0.0072212-0.0403347-0.0130339-0.0844536-0.0177011-0.1320972
				c-0.0049314-0.0476418-0.0072212-0.0937881-0.0072212-0.1390533h-0.0072212
				c-0.076088,0.1117535-0.162303,0.1918926-0.2583809,0.2406807c-0.0963421,0.0487862-0.2124996,0.0730934-0.3479424,0.0730934
				c-0.0641994,0-0.1300716-0.0090714-0.1977053-0.0266838c-0.0678968-0.0179653-0.1297188-0.0470276-0.185463-0.0876236
				c-0.0560093-0.0406876-0.1024189-0.0932617-0.1393185-0.1576366c-0.0368109-0.0643749-0.0551281-0.1431046-0.0551281-0.2360115
				c0-0.1288395,0.0324955-0.2309933,0.0981035-0.3061123c0.0652561-0.0749435,0.1526165-0.1309528,0.2620802-0.1680279
				c0.109376-0.0368977,0.2347794-0.0610275,0.3761225-0.0717716c0.141696-0.0107441,0.2884998-0.0160275,0.4405861-0.0160275
				V18.2869225z M13.5415812,18.5324459c-0.0997772,0-0.2001705,0.0044022-0.3012686,0.0125046
				c-0.1012735,0.0083656-0.1926842,0.0250111-0.2745848,0.0499325c-0.0820761,0.0249233-0.1493568,0.0612049-0.2016668,0.1087589
				c-0.0522223,0.0476437-0.0783777,0.1106091-0.0783777,0.1889877c0,0.0595303,0.0113602,0.1094627,0.0339928,0.1500607
				c0.0223684,0.0403347,0.0528383,0.0728302,0.0908823,0.0977516c0.0379562,0.0250111,0.0803156,0.0430641,0.126461,0.0538082
				c0.0464973,0.0107441,0.093524,0.0159397,0.1410789,0.0159397c0.0855989,0,0.1616859-0.014883,0.2281752-0.0447369
				c0.0664883-0.0295906,0.1224089-0.0699234,0.1676741-0.121088c0.045001-0.0509911,0.0796099-0.109993,0.1033878-0.1766586
				c0.023777-0.0664883,0.0356655-0.1367626,0.0356655-0.210474v-0.1247864H13.5415812z"/>
			<polygon class="st3" points="14.7150574,18.4506607 14.7258005,18.4506607 15.4960995,17.6979733 15.84554,17.6979733 
				15.0038204,18.4613152 15.9312267,19.3671455 15.5744772,19.3671455 14.7258005,18.4897614 14.7150574,18.4897614 
				14.7150574,19.3671455 14.4724398,19.3671455 14.4724398,16.6708794 14.7150574,16.6708794 			"/>
			<path class="st3" d="M16.580164,17.0560188c0,0.0498447-0.0179653,0.0907955-0.0534554,0.1230259
				c-0.0356655,0.0322323-0.075119,0.048172-0.1178303,0.048172c-0.0426216,0-0.0821648-0.0159397-0.1177425-0.048172
				c-0.03549-0.0322304-0.0534534-0.0731812-0.0534534-0.1230259c0-0.0499325,0.0179634-0.0908813,0.0534534-0.1231136
				c0.0355778-0.0318794,0.0751209-0.0481701,0.1177425-0.0481701c0.0427113,0,0.0821648,0.0162907,0.1178303,0.0481701
				C16.5621986,16.9651375,16.580164,17.0060863,16.580164,17.0560188 M16.5302315,19.3671818h-0.2426167v-1.6691723h0.2426167
				V19.3671818z"/>
			<path class="st3" d="M17.3931046,17.6979828c0.0049305,0.0453529,0.0084534,0.0951977,0.0107422,0.1497974
				c0.0022907,0.0548649,0.003788,0.099865,0.003788,0.1355305h0.0069561
				c0.0476437-0.0974865,0.1247883-0.1764812,0.2318745-0.2371559c0.1071739-0.0606766,0.2199841-0.0907955,0.3386955-0.0907955
				c0.2116184,0,0.3703976,0.0629673,0.4763393,0.1888981c0.1056767,0.1260204,0.1587811,0.2922859,0.1587811,0.4992371v1.0236607
				h-0.2427063v-0.9237957c0-0.0879765-0.0072212-0.1674976-0.0213985-0.2388306
				c-0.014267-0.0715084-0.038662-0.1327133-0.0731831-0.1837902s-0.0806656-0.0907936-0.1390533-0.119503
				c-0.0582981-0.0285339-0.1314793-0.0427113-0.219368-0.0427113c-0.0641994,0-0.1265488,0.0130329-0.1872253,0.0391884
				c-0.0606766,0.0260677-0.1146603,0.0658722-0.162302,0.119503c-0.0475559,0.0534554-0.085598,0.1213531-0.1140442,0.2032528
				c-0.0284443,0.082077-0.0426235,0.1790352-0.0426235,0.2907887v0.8558979h-0.2426167v-1.3016796
				c0-0.0453529-0.0012321-0.103651-0.0035229-0.1748085c-0.0026417-0.071331-0.0060749-0.1355305-0.0107441-0.1926842H17.3931046z"
				/>
			<path class="st3" d="M19.3371773,19.702364c0.0664005,0.0853348,0.157547,0.1578999,0.2727356,0.2176952
				c0.1152763,0.059267,0.2371578,0.0888557,0.3657322,0.0888557c0.1187096,0,0.2197208-0.0173473,0.3030281-0.0516052
				c0.0833092-0.0343456,0.1503277-0.0813713,0.2014046-0.1411667c0.0511646-0.0590916,0.0888577-0.1288395,0.1123695-0.2083607
				c0.023777-0.0795231,0.0356674-0.1645927,0.0356674-0.2547703V19.038887h-0.006958
				c-0.0641117,0.1047955-0.1552582,0.1855507-0.2728233,0.2426167c-0.1178303,0.0569782-0.2371578,0.0856876-0.3584232,0.0856876
				c-0.1309509,0-0.2490444-0.0214882-0.3549862-0.0641994c-0.1056767-0.0428886-0.196207-0.1018028-0.2710629-0.1767464
				c-0.0749435-0.0748539-0.1332417-0.1645908-0.1747189-0.2689476c-0.0415668-0.1048851-0.062439-0.217783-0.062439-0.3390484
				c0-0.1187992,0.0208721-0.2304649,0.062439-0.3352604c0.0414772-0.1044445,0.0997753-0.196209,0.1747189-0.2745857
				c0.0748558-0.078289,0.1653862-0.1401978,0.2710629-0.185463c0.1059418-0.0452652,0.2240353-0.0676346,0.3549862-0.0676346
				c0.1212654,0,0.2400646,0.0285339,0.3567505,0.0853348c0.116333,0.0571537,0.2077427,0.1393185,0.2744961,0.2461395h0.006958
				v-0.288763h0.2427044v1.654995c0,0.0901775-0.0125046,0.1866093-0.0375156,0.288763
				c-0.0249214,0.1018028-0.071331,0.1959438-0.1389656,0.2818069c-0.0679855,0.0853329-0.1599255,0.1566658-0.2766113,0.213644
				c-0.1164188,0.0574169-0.2672729,0.0858612-0.4527378,0.0858612c-0.1547298,0-0.3021488-0.0295887-0.4423485-0.0893841
				c-0.1401978-0.0591793-0.2603168-0.1416969-0.3601818-0.2461395L19.3371773,19.702364z M19.3835888,18.5112934
				c0,0.0878868,0.0141773,0.1709328,0.0427094,0.2495747c0.0287094,0.0783768,0.0695705,0.1475067,0.1230259,0.206686
				c0.0536308,0.0594444,0.1195927,0.1064701,0.1978817,0.1409912c0.0786419,0.0346088,0.1678505,0.051693,0.2676277,0.051693
				c0.0925541,0,0.1782417-0.0154114,0.2568836-0.0464096c0.0783768-0.0308228,0.1460094-0.0749416,0.2031651-0.1317444
				c0.0571537-0.0572414,0.1015377-0.1254025,0.1338577-0.2051888c0.0318794-0.0796108,0.0480824-0.1682034,0.0480824-0.2656021
				c0-0.0879765-0.0162029-0.1712856-0.0480824-0.2499275c-0.03232-0.0783768-0.076704-0.1471558-0.1338577-0.2066879
				c-0.0571556-0.0594425-0.1247883-0.1069984-0.2031651-0.1428394c-0.0786419-0.0356655-0.1643295-0.0532799-0.2568836-0.0532799
				c-0.0997772,0-0.1889858,0.0176144-0.2676277,0.0532799c-0.078289,0.035841-0.1442509,0.0833969-0.1978817,0.1428394
				c-0.0534554,0.0595322-0.0943165,0.1283112-0.1230259,0.2066879
				C19.3977661,18.3400078,19.3835888,18.423317,19.3835888,18.5112934"/>
			<path class="st3" d="M22.967474,19.1068459h0.007309l0.5172024-1.4088535h0.263752l-0.8308868,2.1007748
				c-0.0499325,0.1282215-0.1135139,0.2309933-0.1910114,0.3082256c-0.0772324,0.0772324-0.1883698,0.1161575-0.3334999,0.1161575
				c-0.0737095,0-0.1460114-0.006958-0.217432-0.0214882l0.025013-0.2212181
				c0.0571518,0.0191994,0.1164188,0.0284462,0.178154,0.0284462c0.0833073,0,0.148653-0.0255394,0.196207-0.0766163
				c0.0476418-0.0510788,0.089119-0.1241722,0.1247864-0.2193699l0.1356201-0.3495274l-0.7131462-1.6653843h0.2707977
				L22.967474,19.1068459z"/>
			<path class="st3" d="M25.7923756,18.5324459c0,0.1262836-0.0220146,0.2426167-0.0658722,0.3497906
				c-0.0441189,0.106823-0.1053238,0.1996422-0.1837006,0.2780209c-0.0787296,0.0783768-0.17243,0.1395817-0.2818069,0.1837025
				c-0.1094627,0.0438557-0.2295837,0.0658722-0.3602715,0.0658722c-0.1284866,0-0.2472839-0.0220165-0.3566608-0.0658722
				c-0.109375-0.0441208-0.2031631-0.1053257-0.281805-0.1837025c-0.0783787-0.0783787-0.1395817-0.1711979-0.1837025-0.2780209
				c-0.0438576-0.1071739-0.0658722-0.2235069-0.0658722-0.3497906c0-0.1260204,0.0220146-0.2423534,0.0658722-0.3494396
				c0.0441208-0.1071739,0.1053238-0.1996422,0.1837025-0.2781067c0.0786419-0.0786419,0.17243-0.1395836,0.281805-0.1836147
				c0.1093769-0.0442085,0.2281742-0.0659599,0.3566608-0.0659599c0.1306877,0,0.2508087,0.0217514,0.3602715,0.0659599
				c0.1093769,0.0440311,0.2030773,0.1049728,0.2818069,0.1836147c0.0783768,0.0784645,0.1395817,0.1709328,0.1837006,0.2781067
				C25.7703609,18.2900925,25.7923756,18.4064255,25.7923756,18.5324459 M25.5354939,18.5324459
				c0-0.0926437-0.0147972-0.1799164-0.0443859-0.2621689c-0.0299416-0.0817223-0.071949-0.1531429-0.126812-0.2138195
				c-0.0546017-0.0606766-0.1213531-0.1088467-0.1996422-0.1446018c-0.0784664-0.0356655-0.1663532-0.053278-0.2639294-0.053278
				c-0.0974865,0-0.1848469,0.0176125-0.2620792,0.053278c-0.0774078,0.0357552-0.1433697,0.0839252-0.1978798,0.1446018
				c-0.0549526,0.0606766-0.0969601,0.1320972-0.1269016,0.2138195c-0.0295906,0.0822525-0.044384,0.1695251-0.044384,0.2621689
				c0,0.092907,0.0147934,0.1802673,0.044384,0.2623444c0.0299416,0.0818119,0.071949,0.1533203,0.1269016,0.2139072
				c0.0545101,0.0607643,0.120472,0.1083202,0.1978798,0.1424885c0.0772324,0.0346088,0.1645927,0.0519581,0.2620792,0.0519581
				c0.0975761,0,0.185463-0.0173492,0.2639294-0.0519581c0.078289-0.0341682,0.1450405-0.0817242,0.1996422-0.1424885
				c0.054863-0.0605869,0.0968704-0.1320953,0.126812-0.2139072C25.5206966,18.7127132,25.5354939,18.6253529,25.5354939,18.5324459
				"/>
			<path class="st3" d="M27.5257149,19.3671646c-0.0049343-0.0452652-0.0084553-0.0951977-0.010746-0.1497097
				c-0.0022888-0.0548649-0.003521-0.099865-0.003521-0.1355305h-0.0072212
				c-0.0476437,0.0974865-0.1247883,0.1764793-0.2318745,0.2370682c-0.106823,0.0606766-0.2197208,0.0907955-0.3387852,0.0907955
				c-0.2115288,0-0.3703079-0.0628796-0.4759865-0.1888981c-0.1059418-0.1260204-0.1587811-0.292551-0.1587811-0.4991493v-1.0237484
				h0.2424431v0.9238834c0,0.0878868,0.0072212,0.1674099,0.0213985,0.2388306
				c0.014267,0.0714188,0.03866,0.1327133,0.0731812,0.1837025c0.0345211,0.0510769,0.0806675,0.0908813,0.1390553,0.1192379
				c0.0582962,0.0287971,0.1314793,0.0430641,0.219368,0.0430641c0.0641975,0,0.1265488-0.0131226,0.1872234-0.0392761
				c0.0606785-0.0260677,0.1146603-0.0661373,0.1623039-0.1195049c0.047554-0.0533657,0.0855103-0.1213512,0.1140423-0.2031631
				c0.0287094-0.0821648,0.0428886-0.1791229,0.0428886-0.2907887v-0.8559856h0.2423515v1.3016796
				c0,0.0453529,0.0012341,0.1033878,0.003788,0.1748066c0.0023785,0.0714207,0.0058117,0.1356201,0.0107441,0.1926861H27.5257149z"
				/>
			<path class="st3" d="M28.3816299,17.8907108c-0.0026436-0.0714188-0.0060768-0.1355305-0.010746-0.1926842h0.2316093
				c0.0049324,0.0452652,0.0084553,0.0951977,0.0107441,0.1497974c0.0022907,0.0548649,0.0037861,0.0997772,0.0037861,0.1355305
				h0.0068703c0.0476418-0.0975742,0.1190624-0.1764793,0.2139969-0.2372437
				c0.0951977-0.0605888,0.2022839-0.0907955,0.3209934-0.0907955c0.031086,0,0.0589161,0.0012341,0.0838394,0.0035229
				c0.0250092,0.0023785,0.0505466,0.006958,0.0767021,0.0141792l-0.0319672,0.2318726
				c-0.0141773-0.0049305-0.038044-0.00951-0.0714207-0.0141792c-0.0333748-0.0049305-0.0664005-0.0072193-0.0997753-0.0072193
				c-0.0641994,0-0.1260204,0.0118885-0.1855526,0.0356655c-0.0594425,0.0235119-0.1111374,0.0609398-0.1552563,0.1120167
				c-0.0437698,0.0508137-0.079525,0.1160698-0.106823,0.195591c-0.0272121,0.0796108-0.0409508,0.1751614-0.0409508,0.2864742
				v0.85396h-0.2425289v-1.3017673C28.3851509,18.0201664,28.3839169,17.9618683,28.3816299,17.8907108"/>
			<path class="st3" d="M30.8564587,17.0560188c0,0.0498447-0.0179634,0.0907955-0.053278,0.1230259
				c-0.0358429,0.0322323-0.0752964,0.048172-0.117918,0.048172c-0.0427113,0-0.0821648-0.0159397-0.1178303-0.048172
				c-0.03549-0.0322304-0.0534554-0.0731812-0.0534554-0.1230259c0-0.0499325,0.0179653-0.0908813,0.0534554-0.1231136
				c0.0356655-0.0318794,0.075119-0.0481701,0.1178303-0.0481701c0.0426216,0,0.0820751,0.0162907,0.117918,0.0481701
				C30.8384953,16.9651375,30.8564587,17.0060863,30.8564587,17.0560188 M30.8066158,19.3671818h-0.2426186v-1.6691723h0.2426186
				V19.3671818z"/>
			<path class="st3" d="M32.8252068,19.0853138c-0.0714188,0.1070862-0.1640625,0.1878414-0.2782822,0.2427063
				c-0.1140404,0.054512-0.2316971,0.0818119-0.3529625,0.0818119c-0.1309509,0-0.2490463-0.0226326-0.3549881-0.0676346
				c-0.1056747-0.0452652-0.196207-0.1070862-0.2711468-0.185463c-0.0748558-0.0786419-0.1331558-0.1711979-0.1747208-0.2782841
				c-0.0414791-0.1068211-0.0623512-0.2223625-0.0623512-0.3460045c0-0.123291,0.0208721-0.2388306,0.0623512-0.3460045
				c0.0415649-0.106823,0.099865-0.1996422,0.1747208-0.278019c0.0749397-0.0783787,0.165472-0.1401997,0.2711468-0.1854649
				c0.1059418-0.0452652,0.2240372-0.0676327,0.3549881-0.0676327c0.1212654,0,0.2389221,0.0278282,0.3529625,0.0835724
				c0.1142197,0.056097,0.2068634,0.1387024,0.2782822,0.2479019h0.006958v-1.3159466h0.2426186v2.6963558h-0.2426186v-0.2818947
				H32.8252068z M31.5876408,18.5324459c0,0.092907,0.0141773,0.1802673,0.0426216,0.2623444
				c0.0287971,0.0818119,0.0696602,0.1533203,0.1231155,0.2139072c0.0536308,0.0607643,0.119503,0.1083202,0.1978817,0.1424885
				c0.07864,0.0346088,0.1677628,0.0519581,0.2676277,0.0519581c0.0926399,0,0.1781502-0.0173492,0.2568817-0.0519581
				c0.0783768-0.0341682,0.1460114-0.0811958,0.203167-0.1407261c0.0571518-0.0595322,0.1015358-0.1303368,0.1337662-0.2121487
				c0.0318794-0.0821629,0.048172-0.1706676,0.048172-0.2658653c0-0.0949345-0.0162926-0.1834373-0.048172-0.2656021
				c-0.0322304-0.082077-0.0766144-0.1532326-0.1337662-0.2138214c-0.0571556-0.0606747-0.1247902-0.1083183-0.203167-0.1428394
				c-0.0787315-0.0345211-0.1642418-0.0516052-0.2568817-0.0516052c-0.099865,0-0.1889877,0.0176125-0.2676277,0.053278
				c-0.0783787,0.0357552-0.1442509,0.0839252-0.1978817,0.1446018c-0.0534554,0.0606766-0.0943184,0.1320972-0.1231155,0.2138195
				C31.6018181,18.3525295,31.5876408,18.4398022,31.5876408,18.5324459"/>
			<path class="st3" d="M35.2435265,18.4825134v0.0537186c0,0.0188465-0.0014992,0.0391006-0.003788,0.0605888h-1.3835793
				c0.0022888,0.0830441,0.0188446,0.1616859,0.0499306,0.2353954c0.030735,0.0737095,0.0733604,0.1379089,0.1282234,0.1925087
				c0.0546913,0.0548649,0.1190643,0.0980167,0.1927757,0.1302471c0.0734444,0.0320568,0.1532288,0.048172,0.2388306,0.048172
				c0.1260185,0,0.2348671-0.0293255,0.3262749-0.0876236c0.0914116-0.0580349,0.1610718-0.1254044,0.2086258-0.2014046
				l0.181942,0.1428413c-0.0997772,0.1259327-0.2097702,0.216198-0.3299789,0.2710629
				c-0.1201172,0.054512-0.2490425,0.0818119-0.3868637,0.0818119c-0.123558,0-0.2385674-0.0220165-0.3441582-0.0658722
				c-0.1059418-0.0441208-0.1968231-0.1053257-0.2729111-0.1837025c-0.0760002-0.0783787-0.1360588-0.1711979-0.1801796-0.2780209
				c-0.0438576-0.1071739-0.0659599-0.2235069-0.0659599-0.3497906c0-0.1260204,0.0214882-0.2423534,0.0642014-0.3494396
				c0.0429726-0.1071739,0.10215-0.1996422,0.1785011-0.2781067c0.0760002-0.0786419,0.165123-0.1395836,0.2672768-0.1836147
				c0.1021538-0.0442085,0.2127647-0.0659599,0.3318291-0.0659599c0.1308632,0,0.2461395,0.0217514,0.345829,0.0659599
				c0.099865,0.0440311,0.1831703,0.1032982,0.2496605,0.1782417c0.0664902,0.0747662,0.1172142,0.1621265,0.1514702,0.2619915
				C35.2260895,18.2613831,35.2435265,18.3684692,35.2435265,18.4825134 M34.9973869,18.4041367
				c-0.007309-0.1570206-0.0577698-0.2870026-0.151825-0.3906536c-0.0937004-0.1033001-0.2275581-0.1549053-0.4010429-0.1549053
				c-0.0806656,0-0.1559639,0.0147934-0.2247429,0.0446472c-0.0690422,0.0295906-0.1297188,0.0699234-0.181942,0.1210899
				c-0.0522194,0.0513401-0.0937881,0.109375-0.1247864,0.1746311c-0.0308228,0.0656071-0.0487862,0.13377-0.0534554,0.2051907
				H34.9973869z"/>
			<path class="st3" d="M36.7948341,18.2869225c0-0.1439857-0.038044-0.2514248-0.1140442-0.3221397
				c-0.0763512-0.0708923-0.1869621-0.106205-0.3318253-0.106205c-0.0997772,0-0.1926003,0.0176125-0.278286,0.053278
				c-0.085331,0.0357552-0.1578979,0.0833092-0.2174301,0.1428413L35.71772,17.8941555
				c0.068779-0.0689545,0.1599236-0.1259327,0.2729111-0.1711979c0.1128082-0.0452652,0.2405891-0.0676327,0.3833427-0.0676327
				c0.0902672,0,0.1748085,0.0125046,0.2530975,0.037426c0.07864,0.0250111,0.147419,0.062439,0.2069511,0.1122837
				c0.0595322,0.0500202,0.1055908,0.1129856,0.1390533,0.1890736c0.0333786,0.0760002,0.0498428,0.1651211,0.0498428,0.2672749
				v0.7314625c0,0.0641117,0.0023804,0.1305122,0.0072212,0.1995544c0.0047569,0.0688667,0.0119781,0.1271648,0.0215797,0.1748085
				h-0.2176971c-0.0072212-0.0403347-0.0131187-0.0844536-0.0177002-0.1320972
				c-0.0049324-0.0476418-0.0072212-0.0937881-0.0072212-0.1390533h-0.007309
				c-0.0760918,0.1117535-0.1622162,0.1918926-0.258297,0.2406807c-0.0963402,0.0487862-0.2124977,0.0730934-0.3480301,0.0730934
				c-0.0641098,0-0.1300697-0.0090714-0.1976128-0.0266838c-0.0679855-0.0179653-0.1298065-0.0470276-0.1855507-0.0876236
				c-0.0559235-0.0406876-0.1024208-0.0932617-0.1392326-0.1576366c-0.0368996-0.0643749-0.0552139-0.1431046-0.0552139-0.2360115
				c0-0.1288395,0.0324936-0.2309933,0.0981903-0.3061123c0.0652542-0.0749435,0.1526146-0.1309528,0.2620811-0.1680279
				c0.109375-0.0368977,0.2347755-0.0610275,0.3762093-0.0717716c0.1416092-0.0107441,0.2884102-0.0160275,0.4404984-0.0160275
				V18.2869225z M36.7234154,18.5324459c-0.099865,0-0.2002602,0.0044022-0.3012695,0.0125046
				c-0.1011848,0.0083656-0.1926842,0.0250111-0.2745857,0.0499325c-0.0821648,0.0249233-0.1494446,0.0612049-0.2016678,0.1087589
				c-0.0523071,0.0476437-0.0783768,0.1106091-0.0783768,0.1889877c0,0.0595303,0.0112724,0.1094627,0.0339928,0.1500607
				c0.0222816,0.0403347,0.0528412,0.0728302,0.0907974,0.0977516c0.0380402,0.0250111,0.0804024,0.0430641,0.126545,0.0538082
				c0.0464096,0.0107441,0.0934372,0.0159397,0.1409912,0.0159397c0.0856857,0,0.1616859-0.014883,0.2281761-0.0447369
				c0.0664864-0.0295906,0.1224976-0.0699234,0.1677628-0.121088c0.0449982-0.0509911,0.0795212-0.109993,0.103302-0.1766586
				c0.0238647-0.0664883,0.0357513-0.1367626,0.0357513-0.210474v-0.1247864H36.7234154z"/>
			<path class="st3" d="M39.5910454,18.2869225c0-0.1439857-0.038044-0.2514248-0.1140442-0.3221397
				c-0.0764389-0.0708923-0.1869621-0.106205-0.3318253-0.106205c-0.099865,0-0.1926842,0.0176125-0.278286,0.053278
				c-0.0854225,0.0357552-0.1578979,0.0833092-0.2174301,0.1428413l-0.1355286-0.1605415
				c0.068779-0.0689545,0.1599236-0.1259327,0.2728195-0.1711979c0.1128998-0.0452652,0.240593-0.0676327,0.3833466-0.0676327
				c0.0903549,0,0.1748085,0.0125046,0.2530975,0.037426c0.0787277,0.0250111,0.147419,0.062439,0.2069511,0.1122837
				c0.0595322,0.0500202,0.1056786,0.1129856,0.1390533,0.1890736c0.0333748,0.0760002,0.0499306,0.1651211,0.0499306,0.2672749
				v0.7314625c0,0.0641117,0.0023804,0.1305122,0.0072212,0.1995544c0.0046692,0.0688667,0.0118904,0.1271648,0.0215797,0.1748085
				H39.630146c-0.0072212-0.0403347-0.0130348-0.0844536-0.0176125-0.1320972
				c-0.0050201-0.0476418-0.007309-0.0937881-0.007309-0.1390533h-0.0072212
				c-0.0760918,0.1117535-0.1622162,0.1918926-0.2583809,0.2406807c-0.096344,0.0487862-0.2124138,0.0730934-0.3479462,0.0730934
				c-0.0641975,0-0.1300697-0.0090714-0.1976128-0.0266838c-0.0679855-0.0179653-0.1298065-0.0470276-0.1855507-0.0876236
				c-0.0559235-0.0406876-0.1024208-0.0932617-0.1393204-0.1576366s-0.05513-0.1431046-0.05513-0.2360115
				c0-0.1288395,0.0324974-0.2309933,0.0981941-0.3061123c0.0652542-0.0749435,0.1526146-0.1309528,0.2619896-0.1680279
				c0.1093788-0.0368977,0.2347832-0.0610275,0.3762131-0.0717716c0.1416054-0.0107441,0.2884979-0.0160275,0.4405861-0.0160275
				V18.2869225z M39.5196266,18.5324459c-0.099865,0-0.2002602,0.0044022-0.3012695,0.0125046
				c-0.1012726,0.0083656-0.1926842,0.0250111-0.2745857,0.0499325c-0.0821648,0.0249233-0.1494446,0.0612049-0.2017555,0.1087589
				c-0.0522194,0.0476437-0.0783768,0.1106091-0.0783768,0.1889877c0,0.0595303,0.0113602,0.1094627,0.0339928,0.1500607
				c0.0223694,0.0403347,0.0529289,0.0728302,0.0908852,0.0977516c0.0379524,0.0250111,0.0803108,0.0430641,0.126545,0.0538082
				c0.0464096,0.0107441,0.0933495,0.0159397,0.1409912,0.0159397c0.0856857,0,0.1616859-0.014883,0.2281761-0.0447369
				c0.0664864-0.0295906,0.1224976-0.0699234,0.167675-0.121088c0.0449982-0.0509911,0.0796089-0.109993,0.1033897-0.1766586
				c0.0238647-0.0664883,0.0357513-0.1367626,0.0357513-0.210474v-0.1247864H39.5196266z"/>
			<path class="st3" d="M41.3313141,17.8907108c-0.0025558-0.0714188-0.0060768-0.1355305-0.010746-0.1926842h0.2316093
				c0.0048447,0.0452652,0.0084534,0.0951977,0.0107422,0.1497974c0.0022888,0.0548649,0.003788,0.0997772,0.003788,0.1355305
				h0.006958c0.047554-0.0975742,0.1189766-0.1764793,0.2139091-0.2372437
				c0.0951958-0.0605888,0.202282-0.0907955,0.3209038-0.0907955c0.0311775,0,0.0590057,0.0012341,0.0839272,0.0035229
				c0.0250092,0.0023785,0.0505486,0.006958,0.0766144,0.0141792l-0.0318794,0.2318726
				c-0.0142632-0.0049305-0.038044-0.00951-0.071331-0.0141792c-0.0333748-0.0049305-0.0664902-0.0072193-0.099865-0.0072193
				c-0.0642014,0-0.1260185,0.0118885-0.1855507,0.0356655c-0.0594444,0.0235119-0.1111374,0.0609398-0.1552582,0.1120167
				c-0.0437698,0.0508137-0.079525,0.1160698-0.1067352,0.195591c-0.0273895,0.0796108-0.0409508,0.1751614-0.0409508,0.2864742
				v0.85396h-0.2427063v-1.3017673C41.3347435,18.0201664,41.3335991,17.9618683,41.3313141,17.8907108"/>
			<path class="st3" d="M44.0740433,18.4825134v0.0537186c0,0.0188465-0.0014992,0.0391006-0.0037003,0.0605888h-1.3835793
				c0.0022011,0.0830441,0.0188446,0.1616859,0.0498428,0.2353954c0.0308228,0.0737095,0.0734482,0.1379089,0.1283112,0.1925087
				c0.0546036,0.0548649,0.1189766,0.0980167,0.192688,0.1302471c0.0734444,0.0320568,0.1533165,0.048172,0.2389145,0.048172
				c0.1259346,0,0.2347832-0.0293255,0.3261909-0.0876236c0.0914993-0.0580349,0.1611595-0.1254044,0.2087135-0.2014046
				l0.181942,0.1428413c-0.0997772,0.1259327-0.2097702,0.216198-0.3299789,0.2710629
				c-0.1202049,0.054512-0.2490463,0.0818119-0.3868675,0.0818119c-0.123642,0-0.2385635-0.0220165-0.3442421-0.0658722
				c-0.1059418-0.0441208-0.1968231-0.1053257-0.2728233-0.1837025c-0.0760002-0.0783787-0.1361465-0.1711979-0.1802673-0.2780209
				c-0.0437698-0.1071739-0.0658722-0.2235069-0.0658722-0.3497906c0-0.1260204,0.0214882-0.2423534,0.0641975-0.3494396
				c0.0428886-0.1071739,0.1021538-0.1996422,0.1785088-0.2781067c0.0760002-0.0786419,0.1651192-0.1395836,0.2672729-0.1836147
				c0.1021576-0.0442085,0.2127647-0.0659599,0.3317413-0.0659599c0.1308632,0,0.2461395,0.0217514,0.3459167,0.0659599
				c0.099865,0.0440311,0.1831741,0.1032982,0.2496605,0.1782417c0.0664902,0.0747662,0.1172142,0.1621265,0.1514702,0.2619915
				C44.056694,18.2613831,44.0740433,18.3684692,44.0740433,18.4825134 M43.8279037,18.4041367
				c-0.0072212-0.1570206-0.0576859-0.2870026-0.1517372-0.3906536c-0.0937881-0.1033001-0.2276459-0.1549053-0.4011307-0.1549053
				c-0.0806656,0-0.1558762,0.0147934-0.2246513,0.0446472c-0.0690422,0.0295906-0.1297188,0.0699234-0.1820335,0.1210899
				c-0.0521317,0.0513401-0.0937004,0.109375-0.1247864,0.1746311c-0.030735,0.0656071-0.0486984,0.13377-0.0533638,0.2051907
				H43.8279037z"/>
			<path class="st3" d="M45.6254349,18.2869225c0-0.1439857-0.0380402-0.2514248-0.1140404-0.3221397
				c-0.0764427-0.0708923-0.1869621-0.106205-0.3318291-0.106205c-0.099865,0-0.1926842,0.0176125-0.2782822,0.053278
				c-0.0853348,0.0357552-0.1578979,0.0833092-0.2174301,0.1428413l-0.1355324-0.1605415
				c0.068779-0.0689545,0.1599274-0.1259327,0.2728233-0.1711979c0.1128998-0.0452652,0.240593-0.0676327,0.3833427-0.0676327
				c0.0903549,0,0.1748123,0.0125046,0.2531013,0.037426c0.0787277,0.0250111,0.1475067,0.062439,0.2070389,0.1122837
				c0.0594444,0.0500202,0.105587,0.1129856,0.1389656,0.1890736c0.0333748,0.0760002,0.0499306,0.1651211,0.0499306,0.2672749
				v0.7314625c0,0.0641117,0.0023766,0.1305122,0.0072212,0.1995544c0.0046692,0.0688667,0.0118904,0.1271648,0.0215759,0.1748085
				h-0.2176933c-0.0073128-0.0403347-0.0131226-0.0844536-0.0177002-0.1320972
				c-0.0050201-0.0476418-0.0073128-0.0937881-0.0073128-0.1390533h-0.0072212
				c-0.076088,0.1117535-0.1622162,0.1918926-0.2583809,0.2406807c-0.0963402,0.0487862-0.21241,0.0730934-0.3479424,0.0730934
				c-0.0641975,0-0.1300697-0.0090714-0.1977043-0.0266838c-0.0678978-0.0179653-0.1297188-0.0470276-0.185463-0.0876236
				c-0.0559196-0.0406876-0.102417-0.0932617-0.1393166-0.1576366c-0.0368118-0.0643749-0.05513-0.1431046-0.05513-0.2360115
				c0-0.1288395,0.0324936-0.2309933,0.0981903-0.3061123c0.065258-0.0749435,0.1526184-0.1309528,0.2619934-0.1680279
				c0.109375-0.0368977,0.2347794-0.0610275,0.3762093-0.0717716c0.1416092-0.0107441,0.2885017-0.0160275,0.4405861-0.0160275
				V18.2869225z M45.5540161,18.5324459c-0.099865,0-0.2002563,0.0044022-0.3012695,0.0125046
				c-0.1012726,0.0083656-0.1926842,0.0250111-0.2745819,0.0499325c-0.0821648,0.0249233-0.1494484,0.0612049-0.2017555,0.1087589
				c-0.0522232,0.0476437-0.0783768,0.1106091-0.0783768,0.1889877c0,0.0595303,0.0113602,0.1094627,0.0339928,0.1500607
				c0.0223656,0.0403347,0.0529251,0.0728302,0.0908813,0.0977516c0.038044,0.0250111,0.0803146,0.0430641,0.1265488,0.0538082
				c0.0464096,0.0107441,0.0934372,0.0159397,0.1409912,0.0159397c0.0856857,0,0.1616859-0.014883,0.2281761-0.0447369
				c0.0664864-0.0295906,0.1224937-0.0699234,0.1676712-0.121088c0.045002-0.0509911,0.0796127-0.109993,0.1033897-0.1766586
				c0.0238647-0.0664883,0.0357513-0.1367626,0.0357513-0.210474v-0.1247864H45.5540161z"/>
			<rect x="46.4845428" y="16.6709137" class="st3" width="0.2426178" height="2.6962676"/>
			<path class="st3" d="M47.6724434,17.0560188c0,0.0498447-0.0179672,0.0907955-0.0533676,0.1230259
				c-0.0356674,0.0322323-0.0752068,0.048172-0.1178284,0.048172c-0.0426254,0-0.0821648-0.0159397-0.1178322-0.048172
				c-0.0354042-0.0322304-0.0533676-0.0731812-0.0533676-0.1230259c0-0.0499325,0.0179634-0.0908813,0.0533676-0.1231136
				c0.0356674-0.0318794,0.0752068-0.0481701,0.1178322-0.0481701c0.0426216,0,0.0821609,0.0162907,0.1178284,0.0481701
				C47.6544762,16.9651375,47.6724434,17.0060863,47.6724434,17.0560188 M47.622509,19.3671818h-0.2426186v-1.6691723h0.2426186
				V19.3671818z"/>
			<path class="st3" d="M49.0206032,17.9011993h-0.4707909v0.9738159c0,0.0617332,0.0058975,0.112812,0.0177002,0.1531448
				c0.0119781,0.0406857,0.0290604,0.071949,0.051693,0.0945816c0.0226326,0.0227203,0.0494041,0.0381317,0.0804024,0.0464973
				c0.030735,0.0083656,0.0642014,0.0124168,0.099865,0.0124168c0.0330238,0,0.0682487-0.0049305,0.1051483-0.0141773
				c0.0368118-0.0095119,0.0718613-0.0226326,0.1052399-0.0394535l0.0107422,0.2103863
				c-0.0428886,0.0169086-0.0872726,0.0293255-0.1338577,0.0374279c-0.0463219,0.0084534-0.0968704,0.0125923-0.1513824,0.0125923
				c-0.0453529,0-0.092907-0.0059013-0.1428413-0.0177002c-0.0499306-0.0118904-0.0963402-0.0346107-0.1389656-0.0677223
				c-0.0430641-0.0333767-0.0781136-0.0786419-0.1054115-0.1355305c-0.0272102-0.0572433-0.0409508-0.1320095-0.0409508-0.2249165
				v-1.0413628H47.961277v-0.2032528h0.3459167v-0.4707031h0.2426186v0.4707031h0.4707909V17.9011993z"/>
			<path class="st3" d="M49.9726334,19.1068459h0.0072174l0.5172043-1.4088535h0.2638397l-0.8308868,2.1007748
				c-0.0500183,0.1282215-0.1135139,0.2309933-0.1910133,0.3082256c-0.0772324,0.0772324-0.1883698,0.1161575-0.3334961,0.1161575
				c-0.0737114,0-0.1460152-0.006958-0.2174339-0.0214882l0.025013-0.2212181
				c0.0571518,0.0191994,0.1163292,0.0284462,0.1781502,0.0284462c0.0833969,0,0.1486549-0.0255394,0.196209-0.0766163
				c0.0476418-0.0510788,0.089119-0.1241722,0.1248741-0.2193699l0.1355324-0.3495274l-0.7131462-1.6653843h0.2708015
				L49.9726334,19.1068459z"/>
			<path class="st3" d="M51.3458023,19.19594c0,0.0499325-0.0177917,0.0945816-0.0533676,0.1338577
				c-0.0358429,0.0391884-0.0822525,0.058651-0.1394081,0.058651c-0.0568886,0-0.1032982-0.0194626-0.1390495-0.058651
				c-0.0356674-0.0392761-0.0533714-0.0839252-0.0533714-0.1338577c0-0.0498447,0.017704-0.0945816,0.0533714-0.1338577
				c0.0357513-0.0391006,0.0821609-0.0588264,0.1390495-0.0588264c0.0571556,0,0.1035652,0.0197258,0.1394081,0.0588264
				C51.3280106,19.1013584,51.3458023,19.1460953,51.3458023,19.19594"/>
		</g>
	</g>
</g>
<g id="a_1_">
</g>
<g id="a">
</g>
<g>
	<rect x="79.5274124" y="14.0514212" width="8.6530581" height="0.7050032"/>
	<path d="M88.9764481,13.9914064V9.3562698c0-0.0499315-0.017601-0.0923672-0.0525208-0.1275263
		c-0.0351562-0.0349131-0.0775681-0.0524931-0.1274948-0.0524931H88.361412c-0.050148,0-0.0925827,0.01758-0.1274948,0.0524931
		C88.198761,9.2639027,88.181427,9.3063383,88.181427,9.3562698v4.6940069h0.8515778
		C88.9959335,14.0488052,88.9764481,14.0299721,88.9764481,13.9914064z"/>
	<path d="M74.4261322,9.9412699c0-0.0398474,0.019928-0.059989,0.0599899-0.059989h2.970108
		c0.0499268,0,0.0923386-0.0173607,0.1274948-0.0525198c0.0349426-0.034914,0.0525208-0.077322,0.0525208-0.1274986V9.3562698
		c0-0.0499315-0.0175781-0.0923672-0.0525208-0.1275263c-0.0351562-0.0349131-0.0775681-0.0524931-0.1274948-0.0524931h-6.7052307
		c-0.050148,0-0.0925598,0.01758-0.1275024,0.0524931c-0.0351562,0.0351591-0.0524902,0.0775948-0.0524902,0.1275263v0.3449926
		c0,0.0501766,0.017334,0.0925846,0.0524902,0.1274986c0.0349426,0.0351591,0.0773544,0.0525198,0.1275024,0.0525198h2.8200912
		c0.0398483,0,0.0600204,0.0201416,0.0600204,0.059989v4.1083527h0.7943115v0.7068844h-0.7943115v4.7400942
		c0,0.0501499,0.017334,0.0925865,0.0524902,0.1274986c0.0349426,0.0351601,0.0773468,0.052494,0.1274948,0.052494h0.4350204
		c0.0499268,0,0.0923691-0.017334,0.1275253-0.052494c0.0349121-0.0349121,0.0524902-0.0773487,0.0524902-0.1274986v-4.7401762
		h4.3045883v-0.7050037h-4.3045883V9.9412699z"/>
	<path d="M88.181427,19.4966011c0,0.0501499,0.017334,0.0925865,0.0524902,0.1274986
		c0.0349121,0.0351601,0.0773468,0.052494,0.1274948,0.052494h0.4350204c0.0499268,0,0.0923386-0.017334,0.1274948-0.052494
		c0.0349197-0.0349121,0.0525208-0.0773487,0.0525208-0.1274986v-4.6801605c0-0.0366039,0.0188904-0.0545645,0.0526581-0.0575628
		H88.181427V19.4966011z"/>
	<path d="M85.4064102,16.4514904l-0.4350204-0.0149899c-0.1200027,0-0.1800156,0.0550823-0.1800156,0.1650009
		c0,0.7500286-0.2400055,1.3551979-0.7200241,1.8150692c-0.480011,0.4600906-1.1151886,0.6900139-1.9050598,0.6900139
		c-0.7900925,0-1.4276123-0.2299232-1.9125595-0.6900139c-0.4851685-0.4598713-0.7275162-1.0650406-0.7275162-1.8150692v-1.8426781
		h-0.7950287v1.7976799c0,0.64011,0.1424866,1.207531,0.4274902,1.7025623
		c0.2850342,0.4950027,0.6874542,0.8775253,1.2075577,1.147541c0.5198669,0.2699871,1.1198807,0.4050083,1.8000565,0.4050083
		c0.6698685,0,1.2649536-0.1350212,1.7850571-0.4050083c0.5198593-0.2700157,0.9225235-0.6473866,1.2075348-1.1325512
		c0.2850266-0.4849472,0.4275208-1.0425282,0.4275208-1.672554v-0.0750046
		C85.5864029,16.4765644,85.526413,16.4514904,85.4064102,16.4514904z"/>
	<path d="M120.2372513,9.3562698c0-0.0499315-0.0175781-0.0923672-0.0524902-0.1275263
		c-0.0351562-0.0349131-0.0775986-0.0524931-0.1275253-0.0524931h-0.4350204c-0.050148,0-0.0925522,0.01758-0.1274948,0.0524931
		c-0.0351562,0.0351591-0.0524902,0.0775948-0.0524902,0.1275263v4.6939802h0.7950211V9.3562698z"/>
	<path d="M79.5262146,12.2513695c0-0.7500553,0.2400055-1.352416,0.7200165-1.8075733
		c0.4800186-0.4549398,1.1198807-0.682518,1.9200592-0.682518c0.7898712,0,1.4250488,0.2275782,1.9050598,0.682518
		c0.4800186,0.4551573,0.7200241,1.057518,0.7200241,1.8075733v0.0899963c0,0.059988,0.0600128,0.0899954,0.1800156,0.0899954
		l0.4350204-0.0149899c0.0499039,0,0.0923386-0.0173616,0.1274948-0.0525208
		c0.0349121-0.0349131,0.0524979-0.077322,0.0524979-0.1274986c0-0.6300249-0.1424942-1.1850443-0.4275208-1.6650572
		c-0.2850113-0.4800138-0.6876755-0.8524532-1.2075348-1.1175346c-0.5201035-0.264863-1.1151886-0.3975124-1.7850571-0.3975124
		c-0.6801758,0-1.2801895,0.1349936-1.8000565,0.4050083c-0.5201035,0.2700138-0.9225235,0.647604-1.2075577,1.1325512
		c-0.2850037,0.4851646-0.4274902,1.0476789-0.4274902,1.6875429v1.7695808h0.7950287V12.2513695z"/>
	<path d="M63.0258598,13.9914064V9.9412699c0-0.0398474,0.0199242-0.059989,0.0600166-0.059989h5.6551819
		c0.0499268,0,0.0923386-0.0173607,0.1274948-0.0525198c0.0349121-0.034914,0.0524902-0.077322,0.0524902-0.1274986V9.3562698
		c0-0.0499315-0.0175781-0.0923672-0.0524902-0.1275263c-0.0351562-0.0349131-0.0775681-0.0524931-0.1274948-0.0524931h-6.330204
		c-0.0501785,0-0.0925865,0.01758-0.1275253,0.0524931c-0.0351334,0.0351591-0.052494,0.0775948-0.052494,0.1275263v10.1403313
		c0,0.0501499,0.0173607,0.0925865,0.052494,0.1274986c0.0349388,0.0351601,0.0773468,0.052494,0.1275253,0.052494h6.330204
		c0.0499268,0,0.0923386-0.017334,0.1274948-0.052494c0.0349121-0.0349121,0.0524902-0.0773487,0.0524902-0.1274986v-0.3450184
		c0-0.0499039-0.0175781-0.0923405-0.0524902-0.1274986c-0.0351562-0.034914-0.0775681-0.052494-0.1274948-0.052494h-5.6551819
		c-0.0400925,0-0.0600166-0.0199223-0.0600166-0.0600147v-4.0951347c0-0.0398474,0.0199242-0.0600157,0.0600166-0.0600157
		h10.5431061v-0.7050037H63.0858765C63.045784,14.0514212,63.0258598,14.031498,63.0258598,13.9914064z"/>
	<path d="M154.9480133,19.4966011c0,0.0501499,0.0173645,0.0925865,0.0524902,0.1274986
		c0.0349426,0.0351601,0.0773468,0.052494,0.127533,0.052494h0.4350128c0.0498962,0,0.0923309-0.017334,0.1275024-0.052494
		c0.0349121-0.0349121,0.0524902-0.0773487,0.0524902-0.1274986v-4.7101688c0-0.012455,0.005127-0.0198956,0.0093689-0.0281
		h-0.8043976V19.4966011z"/>
	<path d="M133.8791046,14.757679h-0.7978058l0.6561432,2.0238419l0.2400055,0.7800083l0.6450043,1.9650803
		c0.030014,0.1000805,0.0949402,0.1499844,0.1950226,0.1499844h0.4650116c0.1099243,0,0.1650085-0.0449982,0.1650085-0.1349945
		c0-0.0300064-0.0051575-0.0548363-0.0149994-0.0750046L133.8791046,14.757679z"/>
	<path d="M146.5778656,13.9914064V9.9412699c0-0.0398474,0.0199127-0.059989,0.0599823-0.059989h5.6551819
		c0.0499268,0,0.0923615-0.0173607,0.1275177-0.0525198c0.0349274-0.034914,0.0525055-0.077322,0.0525055-0.1274986V9.3562698
		c0-0.0499315-0.0175781-0.0923672-0.0525055-0.1275263c-0.0351562-0.0349131-0.0775909-0.0524931-0.1275177-0.0524931h-6.3302002
		c-0.0501556,0-0.0925903,0.01758-0.1275024,0.0524931c-0.0351562,0.0351591-0.0524902,0.0775948-0.0524902,0.1275263v4.6951513
		h-5.4210663c-0.0832825-0.0350218-0.1618958-0.0696363-0.2491302-0.1050129
		c-0.7401886-0.3000221-1.2877197-0.5423727-1.6425476-0.7275152c-0.3551025-0.1849251-0.6276855-0.4024467-0.8175354-0.6525383
		c-0.1900787-0.2498455-0.2850037-0.5749149-0.2850037-0.9750175c0-0.5899324,0.2048492-1.0425282,0.615036-1.3575411
		c0.4099121-0.315012,0.9949341-0.472518,1.7550507-0.472518c0.8700256,0,1.5450439,0.1926374,2.0250702,0.5775042
		c0.480011,0.3850851,0.7200165,0.8925447,0.7200165,1.5225697v0.2699871c0,0.0501766,0.017334,0.0925856,0.0524902,0.1275263
		c0.0349121,0.0351582,0.0773468,0.0524921,0.1275024,0.0524921h0.4350128c0.0499268,0,0.0923462-0.017334,0.1275024-0.0524921
		c0.0349426-0.0349407,0.0525208-0.0773497,0.0525208-0.1275263v-0.315012c0-0.8400249-0.3075256-1.5098686-0.9225616-2.0100517
		c-0.6150055-0.4999371-1.4726105-0.7500277-2.5725555-0.7500277c-1.0001221,0-1.7827148,0.2226448-2.34758,0.6675272
		c-0.5651093,0.4450731-0.8475494,1.0776873-0.8475494,1.8975697c0,0.5301628,0.1200104,0.9625902,0.3600464,1.2975254
		c0.239975,0.3351812,0.5599213,0.6126909,0.9599915,0.8325291c0.1635895,0.090023,0.3672638,0.1916027,0.5944824,0.3000221
		h-4.8548126l0.2377472,0.7050037h6.2048035c0.5335388,0.2371454,0.9694366,0.4528408,1.2979126,0.6450424
		c0.4099426,0.2400064,0.7099609,0.4975929,0.9000397,0.7725134c0.1898499,0.2751656,0.2850037,0.5976734,0.2850037,0.9675503
		c0,0.610075-0.2175293,1.0875263-0.6525116,1.4325466c-0.4350128,0.3449917-1.067627,0.5175171-1.8975677,0.5175171
		c-0.8700409,0-1.5600433-0.1898594-2.0700684-0.5700378c-0.510025-0.3799343-0.7650452-0.8798714-0.7650452-1.5000572v-0.4199982
		c0-0.0499306-0.0175781-0.0923386-0.0524902-0.1274986c-0.0351562-0.0349407-0.0775757-0.0525208-0.1275024-0.0525208h-0.405014
		c-0.0501404,0-0.0925751,0.01758-0.1274872,0.0525208c-0.0351715,0.0351601-0.0525208,0.0775681-0.0525208,0.1274986v0.465023
		c0,0.8301868,0.3173523,1.4925346,0.9525299,1.987566c0.6349487,0.4950047,1.4925537,0.742506,2.5725861,0.742506
		s1.9200592-0.2449131,2.5201111-0.7350101c0.6000061-0.4898529,0.9000092-1.1400471,0.9000092-1.9500637
		c0-0.5198593-0.1300964-0.9649601-0.3900299-1.3350554c-0.2601471-0.3698492-0.6175842-0.6923561-1.072525-0.9675226
		c-0.028656-0.0173063-0.062912-0.0351038-0.0926971-0.0525198h3.9703369v4.7401762
		c0,0.0501499,0.017334,0.0925865,0.0524902,0.1274986c0.0349121,0.0351601,0.0773468,0.052494,0.1275024,0.052494h6.3302002
		c0.0499268,0,0.0923615-0.017334,0.1275177-0.052494c0.0349274-0.0349121,0.0525055-0.0773487,0.0525055-0.1274986v-0.3450184
		c0-0.0499039-0.0175781-0.0923405-0.0525055-0.1274986c-0.0351562-0.034914-0.0775909-0.052494-0.1275177-0.052494h-5.6551819
		c-0.0400696,0-0.0599823-0.0199223-0.0599823-0.0600147v-4.0951347c0-0.0398474,0.0199127-0.0600157,0.0599823-0.0600157h8.3039703
		v-0.7050037h-8.3039703C146.5977783,14.0514212,146.5778656,14.031498,146.5778656,13.9914064z"/>
	<path d="M98.8917084,13.9914064V9.9412699c0-0.0398474,0.019928-0.059989,0.0599899-0.059989h5.6552048
		c0.0499039,0,0.0923462-0.0173607,0.1275024-0.0525198c0.0349121-0.034914,0.0524902-0.077322,0.0524902-0.1274986V9.3562698
		c0-0.0499315-0.0175781-0.0923672-0.0524902-0.1275263c-0.0351562-0.0349131-0.0775986-0.0524931-0.1275024-0.0524931H98.27668
		c-0.0501556,0-0.0925903,0.01758-0.1275024,0.0524931c-0.0351562,0.0351591-0.0524902,0.0775948-0.0524902,0.1275263v4.6951513
		h-3.0450592V9.3562698c0-0.0499315-0.0175781-0.0923672-0.0524902-0.1275263
		c-0.0351639-0.0349131-0.0775681-0.0524931-0.1275024-0.0524931h-0.4350128c-0.050148,0-0.0925903,0.01758-0.1275024,0.0524931
		c-0.0351562,0.0351591-0.0524902,0.0775948-0.0524902,0.1275263v4.6351366c0,0.0385656-0.0197372,0.0573988-0.0565796,0.0588703
		h0.8511963v0.708601h-0.8473282c0.0336609,0.0029984,0.0527115,0.0209589,0.0527115,0.0575628v4.6801605
		c0,0.0501499,0.017334,0.0925865,0.0524902,0.1274986c0.0349121,0.0351601,0.0773544,0.052494,0.1275024,0.052494h0.4350128
		c0.0499344,0,0.0923386-0.017334,0.1275024-0.052494c0.0349121-0.0349121,0.0524902-0.0773487,0.0524902-0.1274986v-4.7401762
		h3.0450592v4.7401762c0,0.0501499,0.017334,0.0925865,0.0524902,0.1274986
		c0.0349121,0.0351601,0.0773468,0.052494,0.1275024,0.052494h6.3302231c0.0499039,0,0.0923462-0.017334,0.1275024-0.052494
		c0.0349121-0.0349121,0.0524902-0.0773487,0.0524902-0.1274986v-0.3450184c0-0.0499039-0.0175781-0.0923405-0.0524902-0.1274986
		c-0.0351562-0.034914-0.0775986-0.052494-0.1275024-0.052494h-5.6552048c-0.040062,0-0.0599899-0.0199223-0.0599899-0.0600147
		v-4.0951347c0-0.0398474,0.019928-0.0600157,0.0599899-0.0600157h8.310112v-0.7050037h-8.310112
		C98.9116364,14.0514212,98.8917084,14.031498,98.8917084,13.9914064z"/>
	<path d="M107.2618637,19.4966011c0,0.0501499,0.017334,0.0925865,0.0524902,0.1274986
		c0.0349426,0.0351601,0.0773773,0.052494,0.1275253,0.052494h0.4350204c0.0499039,0,0.0923386-0.017334,0.1274948-0.052494
		c0.0349121-0.0349121,0.0524979-0.0773487,0.0524979-0.1274986v-4.7101688c0-0.0122643,0.004982-0.0195684,0.0092087-0.0276632
		l-0.8042374-0.0004368V19.4966011z"/>
	<path d="M127.7222214,19.4665947c-0.0201416,0.0700722-0.0149918,0.1225929,0.0150146,0.157505
		c0.0300064,0.0351601,0.0750046,0.052494,0.1349945,0.052494h0.4800186c0.0998535,0,0.1649933-0.0499039,0.1950073-0.1499844
		l0.6300201-1.9650803l0.2400055-0.7800083l0.6468658-2.0238419h-0.795517L127.7222214,19.4665947z"/>
	<path d="M132.0873718,9.3262615c-0.030014-0.0998621-0.0951538-0.1500111-0.1950073-0.1500111h-0.6450195
		c-0.1000824,0-0.1650085,0.050149-0.1950073,0.1500111l-1.5517578,4.7251596h-9.2610092v0.7049761h-0.8002625v-0.7049761
		h-6.3059158c0.0951996-0.0856886,0.1877594-0.1750851,0.2711868-0.2775097
		c0.3949203-0.4849463,0.5925217-1.087553,0.5925217-1.8075733c0-0.840024-0.2575836-1.5199804-0.7725372-2.0400591
		c-0.5151749-0.5198603-1.192543-0.780036-2.0325699-0.780036h-3.7501144c-0.050148,0-0.0925827,0.0175791-0.1275253,0.0525208
		c-0.0351562,0.0351582-0.0524902,0.0775671-0.0524902,0.1274977v4.7241516c0.0002136,0,0.3299484-0.0006266,0.8091736-0.0014172
		c-0.0089188-0.0099478-0.0141449-0.0236301-0.0141449-0.042572V9.9262791c0-0.0398464,0.0199203-0.0600157,0.0600128-0.0600157
		h3.0000839c0.6199417,0,1.122467,0.1926651,1.5075531,0.5775328c0.3848648,0.3850842,0.5775299,0.8976955,0.5775299,1.5375595
		c0,0.6201582-0.1926651,1.1226845-0.5775299,1.5075245c-0.0489197,0.0489225-0.1043549,0.0871067-0.1572342,0.1295147
		c0.0356216-0.017252,0.060585-0.0295439,0.060585-0.0295439c-0.7609253,0.5853539-1.1864548,0.6653204-1.4939499,0.8021669
		c-0.1049805,0.0467424-0.1630936,0.0887146-0.1503906,0.2101631c0.003624,0.0346136,0.053421,0.1229744,0.053421,0.1229744
		l0.0479126,0.0362482h-0.0026169c0.0055618,0.0026989,0.0122681,0.0036802,0.0147171,0.0110388l2.3100739,4.7701569
		c0.0499344,0.0899963,0.1200027,0.1349945,0.2100296,0.1349945h0.4199982c0.1099167,0,0.1650009-0.0398464,0.1650009-0.1200047
		c0-0.0199223-0.0100555-0.049902-0.0299835-0.0899944l-2.2878036-4.7101698h7.6579285v4.7401762
		c0,0.0501499,0.017334,0.0925865,0.0524902,0.1274986c0.0349426,0.0351601,0.0773468,0.052494,0.1274948,0.052494h6.0302124
		c0.0499268,0,0.0923386-0.017334,0.1274948-0.052494c0.0349426-0.0349121,0.0525208-0.0773487,0.0525208-0.1274986v-0.3450184
		c0-0.0499039-0.0175781-0.0923405-0.0525208-0.1274986c-0.0351562-0.034914-0.0775681-0.052494-0.1274948-0.052494h-5.3551865
		c-0.040062,0-0.0599899-0.0199223-0.0599899-0.0600147v-4.1551504h9.0287094l0.2362823-0.7059031h0.7879639l1.2271576-3.8392382
		c0.0098267-0.0199232,0.0248566-0.0300074,0.0449982-0.0300074c0.0199127,0,0.0349121,0.0100842,0.0449982,0.0300074
		l1.2446747,3.8392382h0.7937927L132.0873718,9.3262615z"/>
	<path d="M166.0338745,13.8541775c-0.169342,0-0.3162689,0.0787401-0.4192657,0.1972437h-4.7947083h-0.0003662
		c0.0952148-0.0856886,0.1877594-0.1750851,0.2711945-0.2775097c0.394928-0.4849463,0.592514-1.087553,0.592514-1.8075733
		c0-0.840024-0.2575836-1.5199804-0.7725372-2.0400591c-0.5151672-0.5198603-1.1925354-0.780036-2.0325623-0.780036h-3.7497559
		c-0.0501556,0-0.0925903,0.0175791-0.127533,0.0525208c-0.0351562,0.0351582-0.0524902,0.0775671-0.0524902,0.1274977v4.7191372
		h0.8076477c-0.0074615-0.0098124-0.01297-0.0216131-0.01297-0.0389748V9.9262791
		c0-0.0398464,0.0199127-0.0600157,0.0600128-0.0600157h0.000351h2.9997406h0.000351
		c0.6199341,0,1.122467,0.1926651,1.5075531,0.5775328c0.3848572,0.3850842,0.5775299,0.8976955,0.5775299,1.5375595
		c0,0.6201582-0.1926727,1.1226845-0.5775299,1.5075245c-0.0489197,0.0489225-0.1043701,0.0871067-0.1572418,0.1295147
		c0.0356293-0.017252,0.0605927-0.0295439,0.0605927-0.0295439c-0.0071411,0.0055056-0.0131989,0.0093756-0.0202789,0.0147724
		c0.000824-0.0003815,0.0042725-0.002017,0.0042725-0.002017c-0.0076447,0.0055323-0.0148468,0.0099478-0.0223999,0.0152626
		c-0.7357635,0.5574722-1.1535339,0.6397276-1.4555511,0.7741489c-0.1049805,0.0467424-0.1630859,0.0887146-0.1503906,0.2101631
		c0.0036316,0.0346136,0.053421,0.1229744,0.053421,0.1229744l0.0479126,0.0362482h-0.0026093
		c0.0055542,0.0026989,0.0122681,0.0036802,0.0147095,0.0110388l2.3100739,4.7701569
		c0.049942,0.0899963,0.1200104,0.1349945,0.2100372,0.1349945h0.419632c0.1099243,0,0.1650085-0.0398464,0.1650085-0.1200047
		c0-0.0199223-0.0100555-0.049902-0.030014-0.0899944l-2.2877808-4.7101698h0.0003662l6.1276093-0.0000277v0.0000277
		c0.102829,0.1313686,0.2557068,0.2212553,0.4354553,0.2212553c0.3102417,0,0.5617523-0.2515087,0.5617523-0.5617514
		S166.3441162,13.8541775,166.0338745,13.8541775z"/>
</g>
<g>
	<path d="M53.3085556,88.321701c-0.5609093,1.7138748-2.4354172,3.218895-4.7335701,2.8887634
		c-2.244091-0.3223724-3.8525047-2.3365784-3.7685394-4.5453949c0.0901451-2.3714447,1.9348831-3.9875183,3.7676125-4.191925
		c1.2230911-0.1364136,2.3572655,0.108223,3.3345718,0.9088058c0.7588921,0.621666,1.267807,1.4004211,1.5252457,2.3610687
		c-1.4977798,0.3568649-2.9822769,0.7105637-4.5025139,1.0727768c0-0.4056625,0-0.7950058,0-1.2053757
		c-0.5214348,0.1240387-1.0064507,0.2386017-1.4910469,0.3548889c-0.6053696,0.1452713-1.2096176,0.2953415-1.8162041,0.4352875
		c-0.1260376,0.0290833-0.1653366,0.0867462-0.1706467,0.2121277c-0.0495872,1.1707916,0.3530998,2.152977,1.1761055,2.9872665
		c1.0981178,1.1131744,3.1464882,1.4923859,4.7431984,0.3538971c0.5345802-0.3811722,0.9523506-0.8773422,1.2225761-1.4830704
		c0.0515289-0.115509,0.1136665-0.1588593,0.2364769-0.1513596C52.9849472,88.3288116,53.13908,88.321701,53.3085556,88.321701z
		 M52.5944061,85.3228531c-0.5256653-1.2886505-1.9026642-2.3149261-3.5620613-2.2414627
		c-1.8257713,0.0808334-3.0673256,1.3837967-3.4162979,2.7091522c1.2919655-0.3070145,2.5708694-0.6109238,3.8800621-0.9220276
		c0,0.4130554,0,0.7974625,0,1.2014923C50.5425186,85.8176651,51.560276,85.5722351,52.5944061,85.3228531z"/>
	<path d="M49.6547394,90.217926c-0.3044472,0-0.5795059,0-0.8729553,0c0-0.3845062,0-0.7634277,0-1.1568375
		c-0.6318588,0-1.2458038,0-1.8774872,0c0-0.2492523,0-0.4843216,0-0.7379379c0.0925827,0,0.1834068,0.0000992,0.274231-0.0000153
		c1.3694534-0.0017471,2.738903-0.0036774,4.1083565-0.0051346c0.2456703-0.0002594,0.2456818,0.000618,0.2457581,0.2543869
		c0.0000343,0.104866-0.0060883,0.2101822,0.0015717,0.3144913c0.0093079,0.1266937-0.0313187,0.1686325-0.1666527,0.1657791
		c-0.511795-0.0108261-1.0238953-0.007309-1.5358849-0.0080948c-0.0536461-0.0000763-0.1073036,0.0069046-0.1769371,0.0117111
		C49.6547394,89.4445801,49.6547394,89.8187256,49.6547394,90.217926z"/>
	<path d="M51.5305862,87.8730698c-1.5612793,0-3.0968094,0-4.6584892,0c0-0.2154388-0.0075912-0.4241867,0.0073242-0.6313171
		c0.0025406-0.0353165,0.1012344-0.0909424,0.1557884-0.0912781c1.0932236-0.0066223,2.1864853-0.0065689,3.2797432-0.0077057
		c0.352066-0.0003586,0.704216,0.0040817,1.0561523-0.0027313c0.1209373-0.0023422,0.1661491,0.0362091,0.1613655,0.15802
		C51.5252457,87.4820099,51.5305862,87.6664581,51.5305862,87.8730698z"/>
</g>
<g>
	<path class="st4" d="M17.8410511,90.0952454c-1.7310905,0-3.1351852-1.4026337-3.1351852-3.1343079
		c0-1.7306976,1.4040947-3.1342087,3.1351852-3.1342087c1.0386524,0,1.9590378,0.5043945,2.5292053,1.2811432l1.3472042-0.0019531
		c-0.692728-1.443222-2.1681557-2.4398193-3.8764095-2.4398193c-2.181428,0-3.9823847,1.6259918-4.2585392,3.7305222h-2.6737232
		c-0.106266,0-0.084115-0.041954-0.084115-0.041954v-2.0908737c0-0.2123337,0.2328291-0.2974243,0.2328291-0.2974243h2.7832088
		c0.1275387,0,0.0426426-0.0637207,0.0426426-0.0637207v-1.4014587l-0.0426426-0.0637207h-3.292388
		c-0.3151875,0-0.648427,0.2460022-0.8522739,0.5298615c-0.2500029,0.34729-0.337533,0.7440567-0.337533,0.7440567v7.3273697
		c0,0.1485138,0.2124338,0.2127228,0.2124338,0.2127228h1.2111778c0.1913567,0,0.0637197-0.0219498,0.0637197-0.0219498v-3.6310959
		c0-0.1069489,0.0629406-0.0643082,0.0629406-0.0643082h2.6745033c0.280448,2.1009216,2.0795517,3.7221375,4.2577572,3.7221375
		c1.6981068,0,3.1658249-0.9726868,3.8636284-2.4012756l-1.3725777,0.0102463
		c-0.5728989,0.7475662-1.475523,1.230011-2.4910507,1.230011"/>
	<path class="st4" d="M17.8410511,85.4646301c0.5167885,0,0.9723949,0.2253113,1.2419147,0.6239319l1.2321568-0.0042953
		c-0.3601723-1.0172806-1.3315926-1.7465057-2.4740734-1.7465057c-1.448103,0-2.6235666,1.1743927-2.6235666,2.6231766
		c0,1.4486923,1.1754618,2.6232758,2.6235666,2.6232758c1.1278439,0,2.0898952-0.7104874,2.4606075-1.7093277L19.0182686,87.88591
		c-0.2744961,0.3486557-0.6995583,0.5721207-1.1771202,0.5721207c-0.8261223,0-1.496603-0.6706772-1.496603-1.4971924
		C16.3444481,86.1345215,17.0149288,85.4646301,17.8410511,85.4646301"/>
</g>
<g>
	<path class="st4" d="M28.5219669,86.8470459c0-1.8763351,1.6958523-3.320549,3.5275249-3.055069v-1.332222
		c-2.5667744-0.2598038-4.8502464,1.7858505-4.8502464,4.387291c0,2.6014481,2.2833023,4.6429367,4.8505821,4.3876266
		l-0.0003357-1.3325577C30.2178192,90.1675949,28.5219669,88.723381,28.5219669,86.8470459z"/>
	<path class="st4" d="M39.6071358,83.7911835l0.0003357-1.3321304c-2.5664673-0.2552261-4.849041,1.785614-4.849041,4.3862305
		s2.2827415,4.6456223,4.8487053,4.3858948v-1.3318024c-1.6088905,0.2331924-3.1124992-0.853302-3.4538422-2.3927765h2.5577202
		v-1.3223419h-2.5577774C36.4944534,84.6446228,37.9981422,83.5579758,39.6071358,83.7911835z"/>
</g>
<g>
	<path class="st5" d="M60.4769821,88.5696869h2.7895889v-1.0492401h-3.7971115l-0.040081-0.0002365v3.7355881h1.0181885v-2.6705246
		L60.4769821,88.5696869L60.4769821,88.5696869z"/>
	<path class="st5" d="M59.4296112,83.8534164l7.6229401-0.0009384l0.0161743-0.0071487
		c1.6454163,0.0153503,2.9742889,1.3494949,2.9742889,2.9929199c0,1.6457672-1.3330917,2.9813232-2.9826126,2.9925766
		l-0.0262527-0.0011749l-1.8649216-0.0018768v-3.7783585h1.0527649v2.750679l0.0878983-0.0023422h0.7262573l0.0404282-0.000473
		c1.0654221-0.0215607,1.922348-0.8888016,1.922348-1.955513c0-1.0724487-0.8656006-1.9433212-1.9386368-1.9562149H60.473114
		l-0.0254288,0.0005875v1.1420593l0.0008202,0.0205078l2.8106842,0.0009384l0.0028114,1.0492477l-3.821022-0.0007019
		l-0.0116005-0.0007019L59.4296112,83.8534164L59.4296112,83.8534164z M74.6972885,82.4785995l4.6054077,7.7632217
		l0.657814-1.0895538l-4.0814285-6.6736679H74.6972885L74.6972885,82.4785995z M69.9712906,91.2562637l4.7222519-7.8677597
		l3.8952026,6.4451294h-5.368576v-1.0052948h3.4851379l-2.0117645-3.3561096l-3.2969284,5.7840347H69.9712906L69.9712906,91.2562637
		z"/>
	<path class="st5" d="M79.3027039,90.2418289l-6.0825348-0.0016479v1.0160828l5.4846039-0.0021133l0.0082016-0.024025
		l0.5897293-0.9883041V90.2418289z M63.6787453,90.2087784l0.0043373-4.1595993h1.0527649v4.1595993L64.735611,90.21698h2.3007736
		l0.0241394,0.0007019c1.8639832-0.0130081,3.3709946-1.5228271,3.3709946-3.3835297
		c0-1.8574219-1.5027924-3.3657227-3.362793-3.3831863l-0.032341,0.000824l-7.9832001-0.0002365l-0.0002365,7.8041229h-1.0181885
		l0.000351-8.817627l9.0012665-0.0005798h0.0406723c2.1406784,0.0193329,3.9178238,1.5064163,4.3019867,3.5333023
		l2.1366959-3.4922867h1.1815567l-3.6642151,6.1378479l-0.3554459,0.6006241
		c-0.7881393,1.154953-2.0965042,2.0151672-3.6005783,2.0287628l-0.0406723,0.0002289h-3.3576317V90.2087784L63.6787453,90.2087784z
		"/>
</g>
<text transform="matrix(1 0 0 1 15.5327387 48.5107193)"><tspan x="0" y="0" class="st0 st1">Wi-Fi Network Name: </tspan><tspan x="0" y="10" class="st0 st1">Wi-Fi Password : </tspan></text>
<text transform="matrix(1 0 0 1 9.5691071 74.8497467)" class="st0 st1">MAC : </text>
<rect x="8.9047728" y="37.9692841" class="st6" width="157.9384918" height="26.2675381"/>
<rect y="-0.3747174" class="st7" width="175.7480316" height="99.2126007"/>
<text transform="matrix(1 0 0 1 80.4150085 32.0947342)"><tspan x="0" y="0" class="st0 st1">S</tspan><tspan x="3.9580078" y="0" class="st0 st1">/N</tspan><tspan x="12.2255859" y="0" class="st0 st1"> : </tspan></text>
<text transform="matrix(1 0 0 1 80.5261383 74.8497467)" class="st0 st1">Electrical Rating : 12V 5A</text>
</svg>
